<svg xmlns="http://www.w3.org/2000/svg" viewBox="0 0 100 100">
  <defs>
    <linearGradient id="grad" x1="0%" y1="0%" x2="100%" y2="100%">
      <stop offset="0%" style="stop-color:#00f5d4;stop-opacity:1" />
      <stop offset="100%" style="stop-color:#00d9ff;stop-opacity:1" />
    </linearGradient>
  </defs>
  <!-- Background -->
  <rect width="100" height="100" rx="20" fill="#0a0a0f"/>
  <!-- Tool icon - Wrench + Code brackets -->
  <path d="M 30 35 L 45 50 L 40 55 L 25 40 C 20 35 20 28 25 23 C 30 18 37 18 42 23 L 47 28 L 42 33 L 37 28 C 35 26 32 26 30 28 C 28 30 28 33 30 35 Z" fill="url(#grad)" stroke="none"/>
  <path d="M 55 45 L 70 60 L 65 65 L 50 50 Z" fill="url(#grad)" stroke="none"/>
  <!-- Code brackets -->
  <path d="M 58 25 L 52 40 L 48 38 L 54 23 Z M 62 23 L 68 38 L 72 36 L 66 21 Z" fill="url(#grad)" stroke="none"/>
  <!-- Accent dot -->
  <circle cx="75" cy="75" r="5" fill="#00f5d4"/>
</svg>
